<svg width="163" height="29" viewBox="0 0 163 29" fill="none" xmlns="http://www.w3.org/2000/svg">
<g clip-path="url(#clip0_2555_10163)">
<mask id="mask0_2555_10163" style="mask-type:luminance" maskUnits="userSpaceOnUse" x="0" y="0" width="163" height="29">
<path d="M163 0H0V29H163V0Z" fill="white"/>
</mask>
<g mask="url(#mask0_2555_10163)">
<path d="M28.3968 20.4222H23.1928C24.5134 18.7816 25.3088 16.7316 25.3088 14.4983C25.3088 12.2653 24.5107 10.2104 23.1877 8.56987H28.3943C29.2755 10.3694 29.7729 12.3784 29.7729 14.4983C29.7729 16.6184 29.278 18.6227 28.3968 20.4222ZM15.1558 20.4222C11.7344 20.4222 8.96199 17.7699 8.96199 14.496C8.96199 11.2222 11.7344 8.56987 15.1558 8.56987C18.577 8.56987 21.3495 11.2246 21.3495 14.496C21.3495 17.7675 18.577 20.4222 15.1558 20.4222ZM4.99777 14.4983C4.99777 19.8656 9.54274 24.2188 15.1533 24.2188C16.6581 24.2188 18.0823 23.896 19.3675 23.3346V27.8926C18.0342 28.2756 16.6203 28.4852 15.1558 28.4852C7.08592 28.4852 0.543701 22.2241 0.543701 14.4983C0.543701 6.77274 7.08593 0.511719 15.1583 0.511719C16.6228 0.511719 18.0342 0.721303 19.37 1.10434V5.66219C18.0848 5.10089 16.6606 4.77808 15.1558 4.77808C9.54778 4.77808 5.00029 9.12877 5.00029 14.4983H4.99777Z" fill="#0D121C"/>
<path d="M44.5949 17.7132C45.8094 17.7132 46.7967 17.2434 47.3875 16.6315V20.0331C46.5341 20.4089 45.5315 20.5968 44.5292 20.5968C40.916 20.5968 38.0072 17.8529 38.0072 14.4995C38.0072 11.1462 40.916 8.40234 44.5292 8.40234C45.5315 8.40234 46.5341 8.60711 47.3875 8.96604V12.3676C46.7967 11.7557 45.8094 11.2859 44.5949 11.2859C42.6405 11.2859 41.2265 12.6493 41.2265 14.4995C41.2265 16.3497 42.6405 17.7132 44.5949 17.7132ZM55.5508 8.40234C59.116 8.40234 61.9565 11.1462 61.9565 14.4995C61.9565 17.8529 59.1136 20.5968 55.5508 20.5968C51.9881 20.5968 49.1449 17.8529 49.1449 14.4995C49.1449 11.1462 52.0031 8.40234 55.5508 8.40234ZM55.5508 11.2546C53.7934 11.2546 52.3641 12.5868 52.3641 14.4995C52.3641 16.4123 53.7934 17.7445 55.5508 17.7445C57.3082 17.7445 58.7373 16.4123 58.7373 14.4995C58.7373 12.5868 57.3082 11.2546 55.5508 11.2546ZM66.9832 8.59025L72.2402 15.4872V8.59025H75.3283V20.4089H72.5836L67.1448 13.4035V20.4089H64.0567V8.59025H66.9807H66.9832ZM84.1835 17.7132C85.3979 17.7132 86.3852 17.2434 86.976 16.6315V20.0331C86.1227 20.4089 85.1201 20.5968 84.1178 20.5968C80.5046 20.5968 77.5958 17.8529 77.5958 14.4995C77.5958 11.1462 80.5046 8.40234 84.1178 8.40234C85.1201 8.40234 86.1227 8.60711 86.976 8.96604V12.3676C86.3852 11.7557 85.3979 11.2859 84.1835 11.2859C82.2291 11.2859 80.815 12.6493 80.815 14.4995C80.815 16.3497 82.2291 17.7132 84.1835 17.7132ZM95.1393 8.40234C98.7045 8.40234 101.545 11.1462 101.545 14.4995C101.545 17.8529 98.702 20.5968 95.1393 20.5968C91.5765 20.5968 88.7334 17.8529 88.7334 14.4995C88.7334 11.1462 91.5917 8.40234 95.1393 8.40234ZM95.1393 11.2546C93.3819 11.2546 91.9527 12.5868 91.9527 14.4995C91.9527 16.4123 93.3819 17.7445 95.1393 17.7445C96.8967 17.7445 98.3259 16.4123 98.3259 14.4995C98.3259 12.5868 96.8967 11.2546 95.1393 11.2546ZM106.999 16.1762V20.4089H103.813V8.59025H107.903C110.845 8.59025 112.864 9.9706 112.864 12.3844C112.864 13.9672 111.862 15.1282 110.32 15.7233L114.264 20.4089H110.385L107.001 16.1762H106.999ZM106.999 13.8876H107.885C108.953 13.8876 109.595 13.3385 109.595 12.4759C109.595 11.6136 108.953 11.0812 107.885 11.0812H106.999V13.8876ZM120.174 8.59025C123.722 8.59025 126.581 11.1293 126.581 14.4995C126.581 17.8698 123.722 20.4089 120.174 20.4089H115.69V8.59025H120.174ZM119.959 11.1149H118.91V17.8866H119.927C122.013 17.8866 123.361 16.3184 123.361 14.502C123.361 12.6856 122.013 11.1173 119.959 11.1173V11.1149ZM132.068 20.4089H128.848V8.59025H132.068V20.4089ZM141.991 15.6608V8.59266H145.21V15.6463C145.21 18.7972 142.96 20.5992 140.001 20.5992C137.042 20.5992 134.791 18.7972 134.791 15.6463V8.59266H138.011V15.6608C138.011 17.1495 138.8 17.8866 139.998 17.8866C141.197 17.8866 141.986 17.1495 141.986 15.6608H141.991Z" fill="#0D121C"/>
<path d="M151.094 12.5093H150.999V20.4084H148.032V8.58984H152.759L155.1 15.2989L157.685 8.58984H162.071V20.4084H159.104V12.5093H159.012L156.024 20.4084H154.08L151.094 12.5093Z" fill="#0D121C"/>
</g>
</g>
<defs>
<clipPath id="clip0_2555_10163">
<rect width="163" height="29" fill="white"/>
</clipPath>
</defs>
</svg>
